<svg xmlns="http://www.w3.org/2000/svg" width="96" height="96" viewBox="0 0 96 96" fill="none">
  <defs>
    <linearGradient id="g" x1="14" y1="10" x2="84" y2="88" gradientUnits="userSpaceOnUse">
      <stop stop-color="#1E9BFF"/>
      <stop offset="0.58" stop-color="#0066E6"/>
      <stop offset="1" stop-color="#001F54"/>
    </linearGradient>
    <filter id="s" x="-20" y="-20" width="136" height="136" color-interpolation-filters="sRGB">
      <feDropShadow dx="0" dy="14" stdDeviation="12" flood-color="#003B8E" flood-opacity="0.24"/>
    </filter>
  </defs>
  <rect x="8" y="8" width="80" height="80" rx="24" fill="url(#g)" filter="url(#s)"/>
  <path d="M31 61V35.5C31 31.9 33.9 29 37.5 29H42.2C45.1 29 47.7 30.9 48.6 33.7L50.1 38.3L51.7 33.7C52.6 30.9 55.2 29 58.1 29H64.5C68.1 29 71 31.9 71 35.5V61" stroke="white" stroke-width="8" stroke-linecap="round" stroke-linejoin="round"/>
  <path d="M31 48H43.3C46 48 48.2 50.2 48.2 52.9V61" stroke="white" stroke-width="8" stroke-linecap="round" stroke-linejoin="round" opacity=".96"/>
  <path d="M65 48H56.9C54.2 48 52 50.2 52 52.9V61" stroke="white" stroke-width="8" stroke-linecap="round" stroke-linejoin="round" opacity=".96"/>
  <circle cx="72" cy="25" r="5" fill="#EAF5FF"/>
  <circle cx="24" cy="70" r="4" fill="#EAF5FF" opacity=".9"/>
</svg>